RobotoSerifMicroCond-Hairline Italic 01fz.ufo
<glyph name="A" format="2">
  <advance width="575"/>
  <unicode hex="0041"/>
  <anchor x="299" y="721" name="top"/>
  <anchor x="504" y="0" name="right"/>
  <anchor x="299" y="0" name="bottom"/>
  <outline>
    <contour>
      <point x="167" y="289.0" type="line"/>
      <point x="146" y="249.0" type="line"/>
      <point x="416" y="249.0" type="line"/>
      <point x="409" y="289.0" type="line"/>
    </contour>
    <contour>
      <point x="360" y="720.0" type="line"/>
      <point x="420" y="57.0" type="line"/>
      <point x="418.9997351458772" y="49.99814602114024"/>
      <point x="389.60526315789474" y="46.0"/>
      <point x="343" y="46.0" type="curve" smooth="yes"/>
      <point x="335" y="46.0" type="line"/>
      <point x="325" y="0.0" type="line"/>
      <point x="516" y="0.0" type="line"/>
      <point x="525" y="46.0" type="line"/>
      <point x="520" y="46.0" type="line" smooth="yes"/>
      <point x="486" y="46.0"/>
      <point x="467" y="55"/>
      <point x="462" y="110.0" type="curve" smooth="yes"/>
      <point x="404" y="722.0" type="line"/>
      <point x="334" y="722.0" type="line"/>
      <point x="62" y="110.0" type="line" smooth="yes"/>
      <point x="37" y="55"/>
      <point x="13" y="46.0"/>
      <point x="-21" y="46.0" type="curve" smooth="yes"/>
      <point x="-26" y="46.0" type="line"/>
      <point x="-35" y="0.0" type="line"/>
      <point x="155" y="0.0" type="line"/>
      <point x="164" y="46.0" type="line"/>
      <point x="156" y="46.0" type="line" smooth="yes"/>
      <point x="112.0" y="46.0"/>
      <point x="86.99764934855817" y="55.989813843752096"/>
      <point x="90" y="69.0" type="curve"/>
      <point x="374" y="719.0" type="line"/>
    </contour>
  </outline>
</glyph>
<glyph name="E" format="2">
  <advance width="553"/>
  <unicode hex="0045"/>
  <anchor x="340" y="741" name="top"/>
  <anchor x="407" y="0" name="right"/>
  <anchor x="340" y="0" name="bottom"/>
  <outline>
    <contour>
      <point x="495" y="220" type="line"/>
      <point x="454" y="220" type="line"/>
      <point x="419" y="86" type="line" smooth="yes"/>
      <point x="409" y="49"/>
      <point x="374" y="42"/>
      <point x="287" y="42" type="curve" smooth="yes"/>
      <point x="126" y="42" type="line"/>
      <point x="236" y="668" type="line"/>
      <point x="370" y="668" type="line" smooth="yes"/>
      <point x="460" y="668"/>
      <point x="492" y="660"/>
      <point x="488" y="624" type="curve" smooth="yes"/>
      <point x="475" y="515" type="line"/>
      <point x="515" y="515" type="line"/>
      <point x="550" y="710" type="line"/>
      <point x="119" y="710" type="line"/>
      <point x="109" y="664" type="line"/>
      <point x="118" y="664" type="line" smooth="yes"/>
      <point x="167" y="664"/>
      <point x="186" y="657"/>
      <point x="181" y="628" type="curve" smooth="yes"/>
      <point x="85" y="83" type="line" smooth="yes"/>
      <point x="79" y="53"/>
      <point x="58" y="46"/>
      <point x="8" y="46" type="curve" smooth="yes"/>
      <point x="-1" y="46" type="line"/>
      <point x="-10" y="0" type="line"/>
      <point x="456" y="0" type="line"/>
    </contour>
    <contour>
      <point x="172" y="384" type="curve"/>
      <point x="164" y="347" type="line"/>
      <point x="246" y="345"/>
      <point x="327" y="341"/>
      <point x="408" y="338" type="curve"/>
      <point x="419" y="394" type="line"/>
      <point x="336" y="391"/>
      <point x="254" y="386"/>
    </contour>
  </outline>
</glyph>
<glyph name="F" format="2">
  <advance width="532"/>
  <unicode hex="0046"/>
  <outline>
    <contour>
      <point x="-9" y="0" type="line"/>
      <point x="212" y="0" type="line"/>
      <point x="221" y="47" type="line"/>
      <point x="205" y="47" type="line" smooth="yes"/>
      <point x="165" y="47"/>
      <point x="128" y="50"/>
      <point x="129" y="57" type="curve" smooth="yes"/>
      <point x="236" y="668" type="line"/>
      <point x="373" y="668" type="line" smooth="yes"/>
      <point x="462" y="668"/>
      <point x="494" y="659"/>
      <point x="491" y="624" type="curve" smooth="yes"/>
      <point x="480" y="518" type="line"/>
      <point x="519" y="518" type="line"/>
      <point x="553" y="710" type="line"/>
      <point x="119" y="710" type="line"/>
      <point x="109" y="664" type="line"/>
      <point x="118" y="664" type="line" smooth="yes"/>
      <point x="168" y="664"/>
      <point x="186" y="657"/>
      <point x="181" y="628" type="curve" smooth="yes"/>
      <point x="85" y="82" type="line" smooth="yes"/>
      <point x="80" y="53"/>
      <point x="59" y="46"/>
      <point x="9" y="46" type="curve" smooth="yes"/>
      <point x="0" y="46" type="line"/>
    </contour>
    <contour>
      <point x="172" y="381" type="curve"/>
      <point x="165" y="344" type="line"/>
      <point x="246" y="341"/>
      <point x="328" y="338"/>
      <point x="412" y="335" type="curve"/>
      <point x="422" y="390" type="line"/>
      <point x="338" y="388"/>
      <point x="255" y="384"/>
    </contour>
  </outline>
</glyph>
<glyph name="H" format="2">
  <advance width="670"/>
  <unicode hex="0048"/>
  <anchor x="335" y="741" name="top"/>
  <anchor x="335" y="0" name="bottom"/>
  <outline>
    <contour>
      <point x="180" y="387" type="line"/>
      <point x="171" y="345" type="line"/>
      <point x="529" y="345" type="line"/>
      <point x="537" y="387" type="line"/>
    </contour>
    <contour>
      <point x="-5" y="0" type="line"/>
      <point x="199" y="0" type="line"/>
      <point x="209" y="46" type="line"/>
      <point x="201" y="46" type="line" smooth="yes"/>
      <point x="170" y="46"/>
      <point x="132" y="49"/>
      <point x="133" y="56" type="curve" smooth="yes"/>
      <point x="239" y="654" type="line" smooth="yes"/>
      <point x="240" y="661"/>
      <point x="281" y="664"/>
      <point x="312" y="664" type="curve" smooth="yes"/>
      <point x="319" y="664" type="line"/>
      <point x="328" y="710" type="line"/>
      <point x="124" y="710" type="line"/>
      <point x="114" y="664" type="line"/>
      <point x="123" y="664" type="line" smooth="yes"/>
      <point x="171" y="664"/>
      <point x="191" y="658"/>
      <point x="186" y="628" type="curve" smooth="yes"/>
      <point x="89" y="82" type="line" smooth="yes"/>
      <point x="84" y="52"/>
      <point x="61" y="46"/>
      <point x="13" y="46" type="curve" smooth="yes"/>
      <point x="4" y="46" type="line"/>
    </contour>
    <contour>
      <point x="372" y="0" type="line"/>
      <point x="577" y="0" type="line"/>
      <point x="587" y="46" type="line"/>
      <point x="577" y="46" type="line" smooth="yes"/>
      <point x="528" y="46"/>
      <point x="508" y="50"/>
      <point x="514" y="82" type="curve" smooth="yes"/>
      <point x="612" y="628" type="line" smooth="yes"/>
      <point x="618" y="659"/>
      <point x="642" y="664"/>
      <point x="688" y="664" type="curve" smooth="yes"/>
      <point x="697" y="664" type="line"/>
      <point x="706" y="710" type="line"/>
      <point x="501" y="710" type="line"/>
      <point x="492" y="664" type="line"/>
      <point x="499" y="664" type="line" smooth="yes"/>
      <point x="530" y="664"/>
      <point x="569" y="661"/>
      <point x="568" y="654" type="curve" smooth="yes"/>
      <point x="462" y="56" type="line" smooth="yes"/>
      <point x="461" y="49"/>
      <point x="420" y="46"/>
      <point x="388" y="46" type="curve" smooth="yes"/>
      <point x="381" y="46" type="line"/>
    </contour>
  </outline>
</glyph>
<glyph name="I" format="2">
  <advance width="303"/>
  <unicode hex="0049"/>
  <anchor x="153" y="741" name="top"/>
  <anchor x="212" y="0" name="right"/>
  <anchor x="153" y="0" name="bottom"/>
  <outline>
    <contour>
      <point x="90" y="82" type="line" smooth="yes"/>
      <point x="85" y="53"/>
      <point x="64" y="46"/>
      <point x="14" y="46" type="curve" smooth="yes"/>
      <point x="-2" y="46" type="line"/>
      <point x="-11" y="0" type="line"/>
      <point x="207" y="0" type="line"/>
      <point x="217" y="46" type="line"/>
      <point x="201" y="46" type="line" smooth="yes"/>
      <point x="151" y="46"/>
      <point x="133" y="53"/>
      <point x="138" y="82" type="curve" smooth="yes"/>
      <point x="234" y="628" type="line" smooth="yes"/>
      <point x="239" y="657"/>
      <point x="260" y="664"/>
      <point x="310" y="664" type="curve" smooth="yes"/>
      <point x="327" y="664" type="line"/>
      <point x="336" y="710" type="line"/>
      <point x="117" y="710" type="line"/>
      <point x="107" y="664" type="line"/>
      <point x="123" y="664" type="line" smooth="yes"/>
      <point x="173" y="664"/>
      <point x="191" y="657"/>
      <point x="186" y="628" type="curve" smooth="yes"/>
    </contour>
  </outline>
</glyph>
<glyph name="M" format="2">
  <advance width="767"/>
  <unicode hex="004D"/>
  <anchor x="385" y="0" name="bottom"/>
  <outline>
    <contour>
      <point x="-9" y="0" type="line"/>
      <point x="175" y="0" type="line"/>
      <point x="184" y="46" type="line"/>
      <point x="181" y="46" type="line" smooth="yes"/>
      <point x="162" y="46"/>
      <point x="123" y="49"/>
      <point x="124" y="56" type="curve" smooth="yes"/>
      <point x="237" y="702" type="line"/>
      <point x="229" y="706" type="line"/>
      <point x="317" y="-2" type="line"/>
      <point x="356" y="-2" type="line"/>
      <point x="683" y="702" type="line"/>
      <point x="675" y="700" type="line"/>
      <point x="561" y="56" type="line" smooth="yes"/>
      <point x="560" y="49"/>
      <point x="520" y="46"/>
      <point x="497" y="46" type="curve" smooth="yes"/>
      <point x="490" y="46" type="line"/>
      <point x="480" y="0" type="line"/>
      <point x="675" y="0" type="line"/>
      <point x="684" y="46" type="line"/>
      <point x="675" y="46" type="line" smooth="yes"/>
      <point x="625" y="46"/>
      <point x="607" y="53"/>
      <point x="612" y="82" type="curve" smooth="yes"/>
      <point x="708" y="628" type="line" smooth="yes"/>
      <point x="713" y="657"/>
      <point x="733" y="664"/>
      <point x="784" y="664" type="curve" smooth="yes"/>
      <point x="793" y="664" type="line"/>
      <point x="802" y="710" type="line"/>
      <point x="643" y="710" type="line"/>
      <point x="344" y="54" type="line"/>
      <point x="361" y="26" type="line"/>
      <point x="278" y="710" type="line"/>
      <point x="117" y="710" type="line"/>
      <point x="108" y="664" type="line"/>
      <point x="116" y="664" type="line" smooth="yes"/>
      <point x="168" y="664"/>
      <point x="186" y="657"/>
      <point x="180" y="628" type="curve" smooth="yes"/>
      <point x="85" y="82" type="line" smooth="yes"/>
      <point x="79" y="53"/>
      <point x="59" y="46"/>
      <point x="9" y="46" type="curve" smooth="yes"/>
      <point x="0" y="46" type="line"/>
    </contour>
  </outline>
</glyph>
<glyph name="N" format="2">
  <advance width="653"/>
  <unicode hex="004E"/>
  <anchor x="329" y="741" name="top"/>
  <anchor x="348" y="0" name="bottom"/>
  <outline>
    <contour>
      <point x="-9" y="0" type="line"/>
      <point x="189" y="0" type="line"/>
      <point x="198" y="46" type="line"/>
      <point x="187" y="46" type="line" smooth="yes"/>
      <point x="160" y="46"/>
      <point x="120" y="49"/>
      <point x="122" y="56" type="curve"/>
      <point x="233" y="684" type="line"/>
      <point x="218" y="688" type="line"/>
      <point x="429" y="0" type="line"/>
      <point x="482" y="0" type="line"/>
      <point x="594" y="628" type="line" smooth="yes"/>
      <point x="598" y="657"/>
      <point x="620" y="664"/>
      <point x="670" y="664" type="curve" smooth="yes"/>
      <point x="679" y="664" type="line"/>
      <point x="688" y="710" type="line"/>
      <point x="489" y="710" type="line"/>
      <point x="479" y="664" type="line"/>
      <point x="491" y="664" type="line" smooth="yes"/>
      <point x="518" y="664"/>
      <point x="557" y="661"/>
      <point x="556" y="654" type="curve" smooth="yes"/>
      <point x="449" y="51" type="line"/>
      <point x="464" y="49" type="line"/>
      <point x="262" y="710" type="line"/>
      <point x="119" y="710" type="line"/>
      <point x="109" y="664" type="line"/>
      <point x="118" y="664" type="line" smooth="yes"/>
      <point x="168" y="664"/>
      <point x="186" y="657"/>
      <point x="181" y="628" type="curve" smooth="yes"/>
      <point x="84" y="82" type="line" smooth="yes"/>
      <point x="79" y="53"/>
      <point x="59" y="46"/>
      <point x="9" y="46" type="curve" smooth="yes"/>
      <point x="0" y="46" type="line"/>
    </contour>
  </outline>
</glyph>
<glyph name="O" format="2">
  <advance width="622"/>
  <unicode hex="004F"/>
  <anchor x="308" y="741" name="top"/>
  <anchor x="327" y="0" name="bottom"/>
  <outline>
    <contour>
      <point x="589" y="639"/>
      <point x="503" y="733"/>
      <point x="362" y="733" type="curve" smooth="yes"/>
      <point x="142" y="733"/>
      <point x="53" y="474"/>
      <point x="53" y="262" type="curve" smooth="yes"/>
      <point x="53" y="72"/>
      <point x="139" y="-23"/>
      <point x="281" y="-23" type="curve" smooth="yes"/>
      <point x="500" y="-23"/>
      <point x="589" y="236"/>
      <point x="589" y="448" type="curve" smooth="yes"/>
    </contour>
    <contour>
      <point x="283" y="22" type="curve" smooth="yes"/>
      <point x="171" y="22"/>
      <point x="107" y="97"/>
      <point x="107" y="266" type="curve" smooth="yes"/>
      <point x="107" y="481"/>
      <point x="192" y="688"/>
      <point x="359" y="688" type="curve" smooth="yes"/>
      <point x="471" y="688"/>
      <point x="535" y="614"/>
      <point x="535" y="445" type="curve" smooth="yes"/>
      <point x="535" y="231"/>
      <point x="449" y="22"/>
    </contour>
  </outline>
</glyph>
<glyph name="R" format="2">
  <advance width="589"/>
  <unicode hex="0052"/>
  <anchor x="345" y="741" name="top"/>
  <anchor x="345" y="0" name="bottom"/>
  <outline>
    <contour>
      <point x="-10" y="0" type="line"/>
      <point x="208" y="0" type="line"/>
      <point x="217" y="46" type="line"/>
      <point x="203" y="46" type="line" smooth="yes"/>
      <point x="165" y="46"/>
      <point x="127" y="49"/>
      <point x="128" y="56" type="curve" smooth="yes"/>
      <point x="173" y="311" type="line"/>
      <point x="315" y="311" type="line"/>
      <point x="319" y="311"/>
      <point x="323" y="314"/>
      <point x="332" y="319" type="curve"/>
      <point x="436" y="333"/>
      <point x="533" y="398"/>
      <point x="533" y="533" type="curve" smooth="yes"/>
      <point x="533" y="639"/>
      <point x="457" y="710"/>
      <point x="305" y="710" type="curve" smooth="yes"/>
      <point x="118" y="710" type="line"/>
      <point x="108" y="664" type="line"/>
      <point x="117" y="664" type="line" smooth="yes"/>
      <point x="168" y="664"/>
      <point x="186" y="657"/>
      <point x="181" y="628" type="curve" smooth="yes"/>
      <point x="84" y="82" type="line" smooth="yes"/>
      <point x="79" y="53"/>
      <point x="58" y="46"/>
      <point x="8" y="46" type="curve" smooth="yes"/>
      <point x="-1" y="46" type="line"/>
    </contour>
    <contour>
      <point x="306" y="668" type="line" smooth="yes"/>
      <point x="424" y="668"/>
      <point x="481" y="624"/>
      <point x="481" y="534" type="curve" smooth="yes"/>
      <point x="481" y="427"/>
      <point x="419" y="351"/>
      <point x="276" y="351" type="curve" smooth="yes"/>
      <point x="180" y="351" type="line"/>
      <point x="237" y="668" type="line"/>
    </contour>
    <contour>
      <point x="304" y="327" type="line"/>
      <point x="426" y="0" type="line"/>
      <point x="522" y="0" type="line"/>
      <point x="532" y="48" type="line"/>
      <point x="520" y="48" type="line" smooth="yes"/>
      <point x="479" y="48"/>
      <point x="457" y="60"/>
      <point x="438" y="110" type="curve" smooth="yes"/>
      <point x="346" y="350" type="line"/>
    </contour>
  </outline>
</glyph>
<glyph name="V" format="2">
  <advance width="572"/>
  <unicode hex="0056"/>
  <outline>
    <contour>
      <point x="238" y="-7" type="line"/>
      <point x="180" y="653" type="line"/>
      <point x="181.99805147621242" y="659.9931801667435"/>
      <point x="209.6103896103896" y="664"/>
      <point x="256" y="664" type="curve" smooth="yes"/>
      <point x="264" y="664" type="line"/>
      <point x="273" y="710" type="line"/>
      <point x="83" y="710" type="line"/>
      <point x="73" y="664" type="line"/>
      <point x="78" y="664" type="line" smooth="yes"/>
      <point x="112" y="664"/>
      <point x="132" y="653"/>
      <point x="137" y="600" type="curve" smooth="yes"/>
      <point x="194" y="-12" type="line"/>
      <point x="265" y="-12" type="line"/>
      <point x="537" y="600" type="line" smooth="yes"/>
      <point x="562" y="653"/>
      <point x="587" y="664"/>
      <point x="620" y="664" type="curve" smooth="yes"/>
      <point x="625" y="664" type="line"/>
      <point x="634" y="710" type="line"/>
      <point x="444" y="710" type="line"/>
      <point x="434" y="664" type="line"/>
      <point x="442" y="664" type="line" smooth="yes"/>
      <point x="487.3333333333333" y="664"/>
      <point x="512.997816796564" y="653.9905394517775"/>
      <point x="510" y="641" type="curve"/>
      <point x="225" y="-7" type="line"/>
    </contour>
  </outline>
</glyph>
<glyph name="W" format="2">
  <advance width="841"/>
  <unicode hex="0057"/>
  <anchor x="417" y="741" name="top"/>
  <outline>
    <contour>
      <point x="92" y="710" type="line"/>
      <point x="81" y="664" type="line"/>
      <point x="86" y="664" type="line" smooth="yes"/>
      <point x="119" y="664"/>
      <point x="142" y="652"/>
      <point x="143" y="595" type="curve" smooth="yes"/>
      <point x="143" y="-14" type="line"/>
      <point x="212" y="-14" type="line"/>
      <point x="504" y="669" type="line"/>
      <point x="488" y="658" type="line"/>
      <point x="505" y="-14" type="line"/>
      <point x="574" y="-14" type="line"/>
      <point x="816" y="597" type="line" smooth="yes"/>
      <point x="835" y="654"/>
      <point x="864" y="664"/>
      <point x="897" y="664" type="curve" smooth="yes"/>
      <point x="902" y="664" type="line"/>
      <point x="912" y="710" type="line"/>
      <point x="726" y="710" type="line"/>
      <point x="716" y="664" type="line"/>
      <point x="725" y="664" type="line" smooth="yes"/>
      <point x="767" y="664"/>
      <point x="794" y="654"/>
      <point x="791" y="641" type="curve"/>
      <point x="541" y="-11" type="line"/>
      <point x="549" y="-9" type="line"/>
      <point x="531" y="710" type="line"/>
      <point x="483" y="710" type="line"/>
      <point x="179" y="-12" type="line"/>
      <point x="188" y="-9" type="line"/>
      <point x="187" y="653" type="line"/>
      <point x="189" y="660"/>
      <point x="219" y="664"/>
      <point x="261" y="664" type="curve" smooth="yes"/>
      <point x="270" y="664" type="line"/>
      <point x="281" y="710" type="line"/>
    </contour>
  </outline>
</glyph>
<glyph name="X" format="2">
  <advance width="612"/>
  <unicode hex="0058"/>
  <outline>
    <contour>
      <point x="99" y="664" type="line"/>
      <point x="112" y="664" type="line" smooth="yes"/>
      <point x="143" y="664"/>
      <point x="158" y="661"/>
      <point x="171" y="630" type="curve"/>
      <point x="289" y="356" type="line"/>
      <point x="295" y="350" type="line"/>
      <point x="423" y="56" type="line"/>
      <point x="421" y="49"/>
      <point x="383" y="46"/>
      <point x="353" y="46" type="curve" smooth="yes"/>
      <point x="339" y="46" type="line"/>
      <point x="329" y="0" type="line"/>
      <point x="531" y="0" type="line"/>
      <point x="542" y="46" type="line"/>
      <point x="523" y="46" type="line" smooth="yes"/>
      <point x="493" y="46"/>
      <point x="477" y="50"/>
      <point x="465" y="80" type="curve"/>
      <point x="330" y="382" type="line"/>
      <point x="323" y="391" type="line"/>
      <point x="212" y="655" type="line"/>
      <point x="214" y="661"/>
      <point x="252" y="664"/>
      <point x="282" y="664" type="curve" smooth="yes"/>
      <point x="296" y="664" type="line"/>
      <point x="306" y="710" type="line"/>
      <point x="110" y="710" type="line"/>
    </contour>
    <contour>
      <point x="-44" y="0" type="line"/>
      <point x="158" y="0" type="line"/>
      <point x="169" y="46" type="line"/>
      <point x="153" y="46" type="line" smooth="yes"/>
      <point x="123" y="46"/>
      <point x="89" y="54"/>
      <point x="91" y="63" type="curve"/>
      <point x="312" y="356" type="line"/>
      <point x="289" y="385" type="line"/>
      <point x="63" y="92" type="line" smooth="yes"/>
      <point x="34" y="55"/>
      <point x="13" y="46"/>
      <point x="-17" y="46" type="curve" smooth="yes"/>
      <point x="-34" y="46" type="line"/>
    </contour>
    <contour>
      <point x="331" y="356" type="line"/>
      <point x="540" y="619" type="line" smooth="yes"/>
      <point x="570" y="657"/>
      <point x="592" y="664"/>
      <point x="623" y="664" type="curve" smooth="yes"/>
      <point x="635" y="664" type="line"/>
      <point x="645" y="710" type="line"/>
      <point x="447" y="710" type="line"/>
      <point x="437" y="664" type="line"/>
      <point x="449" y="664" type="line" smooth="yes"/>
      <point x="480" y="664"/>
      <point x="515" y="657"/>
      <point x="513" y="647" type="curve"/>
      <point x="307" y="383" type="line"/>
    </contour>
  </outline>
</glyph>
<glyph name="d" format="2">
  <advance width="538"/>
  <unicode hex="0064"/>
  <anchor x="558" y="735" name="right"/>
  <anchor x="243" y="0" name="bottom"/>
  <outline>
    <contour>
      <point x="177" y="-13" type="curve" smooth="yes"/>
      <point x="274" y="-13"/>
      <point x="340.96094358335415" y="79.76203233337816"/>
      <point x="407" y="222" type="curve"/>
      <point x="399" y="256" type="line"/>
      <point x="337.00661725861653" y="125.91552473939203"/>
      <point x="265.6090909090909" y="31.0"/>
      <point x="180" y="31" type="curve" smooth="yes"/>
      <point x="125.3932584269663" y="31.0"/>
      <point x="90.0" y="85.0"/>
      <point x="90" y="192" type="curve" smooth="yes"/>
      <point x="90" y="369"/>
      <point x="175.0" y="531.0"/>
      <point x="302" y="531" type="curve" smooth="yes"/>
      <point x="373" y="531"/>
      <point x="426" y="482"/>
      <point x="438" y="398" type="curve"/>
      <point x="460" y="421" type="line"/>
      <point x="449" y="518"/>
      <point x="386" y="575.0"/>
      <point x="306" y="575" type="curve" smooth="yes"/>
      <point x="152" y="575"/>
      <point x="40.0" y="391.0"/>
      <point x="40" y="192" type="curve" smooth="yes"/>
      <point x="40" y="55"/>
      <point x="89.0" y="-13"/>
    </contour>
    <contour>
      <point x="423" y="0" type="curve" smooth="yes"/>
      <point x="447" y="0"/>
      <point x="470.6714285714286" y="0.0"/>
      <point x="494" y="0" type="curve"/>
      <point x="498" y="42" type="line"/>
      <point x="476.64285714285717" y="42.0"/>
      <point x="455" y="42"/>
      <point x="433" y="42" type="curve" smooth="yes"/>
      <point x="414" y="42.0"/>
      <point x="405" y="49"/>
      <point x="405" y="70" type="curve" smooth="yes"/>
      <point x="405" y="84"/>
      <point x="413" y="131"/>
      <point x="433" y="244" type="curve" smooth="yes"/>
      <point x="527" y="780" type="line"/>
      <point x="405" y="780" type="line"/>
      <point x="398" y="747" type="line"/>
      <point x="409" y="745" type="line" smooth="yes"/>
      <point x="450" y="738"/>
      <point x="469" y="726"/>
      <point x="463" y="692" type="curve" smooth="yes"/>
      <point x="372" y="164" type="line"/>
      <point x="374" y="162" type="line"/>
      <point x="365" y="97"/>
      <point x="363" y="70"/>
      <point x="363" y="52" type="curve" smooth="yes"/>
      <point x="363" y="18"/>
      <point x="388" y="0.0"/>
    </contour>
  </outline>
</glyph>
<glyph name="l" format="2">
  <advance width="276"/>
  <unicode hex="006C"/>
  <anchor x="142" y="746" name="top"/>
  <anchor x="258" y="735" name="right"/>
  <anchor x="319" y="391" name="mid"/>
  <anchor x="145" y="0" name="bottom"/>
  <outline>
    <contour>
      <point x="130" y="140" type="curve" smooth="yes"/>
      <point x="251" y="780" type="line"/>
      <point x="127" y="780" type="line"/>
      <point x="119" y="742" type="line"/>
      <point x="127" y="740" type="line" smooth="yes"/>
      <point x="168" y="729"/>
      <point x="191" y="721"/>
      <point x="188" y="702" type="curve" smooth="yes"/>
      <point x="89" y="170" type="line" smooth="yes"/>
      <point x="75" y="118"/>
      <point x="67" y="84"/>
      <point x="67" y="54" type="curve" smooth="yes"/>
      <point x="67" y="19"/>
      <point x="90" y="0"/>
      <point x="125" y="0" type="curve" smooth="yes"/>
      <point x="152" y="0"/>
      <point x="178" y="0"/>
      <point x="204" y="0" type="curve"/>
      <point x="211" y="42" type="line"/>
      <point x="186" y="42"/>
      <point x="163" y="42"/>
      <point x="138" y="42" type="curve" smooth="yes"/>
      <point x="123" y="42"/>
      <point x="114" y="50"/>
      <point x="114" y="68" type="curve" smooth="yes"/>
      <point x="114" y="81"/>
      <point x="116" y="94"/>
    </contour>
  </outline>
</glyph>
<glyph name="m" format="2">
  <advance width="809"/>
  <unicode hex="006D"/>
  <anchor x="397" y="-10" name="bottom"/>
  <outline>
    <contour>
      <point x="56" y="0" type="line"/>
      <point x="140" y="476" type="line" smooth="yes"/>
      <point x="146" y="512"/>
      <point x="123" y="522"/>
      <point x="74" y="530" type="curve" smooth="yes"/>
      <point x="61" y="532" type="line"/>
      <point x="68" y="565" type="line"/>
      <point x="179" y="565" type="line"/>
      <point x="169" y="391" type="line"/>
      <point x="171" y="383" type="line"/>
      <point x="103" y="0" type="line"/>
    </contour>
    <contour>
      <point x="679" y="139" type="line" smooth="yes"/>
      <point x="671" y="94"/>
      <point x="670" y="83"/>
      <point x="670" y="70" type="curve" smooth="yes"/>
      <point x="670" y="48"/>
      <point x="680" y="42"/>
      <point x="699" y="42" type="curve" smooth="yes"/>
      <point x="719" y="42"/>
      <point x="738" y="42"/>
      <point x="758" y="42" type="curve"/>
      <point x="754" y="0" type="line"/>
      <point x="730" y="0"/>
      <point x="706" y="0"/>
      <point x="682" y="0" type="curve" smooth="yes"/>
      <point x="646" y="0"/>
      <point x="621" y="18"/>
      <point x="621" y="58" type="curve" smooth="yes"/>
      <point x="621" y="83"/>
      <point x="628" y="119"/>
      <point x="637" y="168" type="curve" smooth="yes"/>
      <point x="674" y="366" type="line" smooth="yes"/>
      <point x="682.005270560672" y="408.8390154327855"/>
      <point x="688.0" y="447.6"/>
      <point x="688" y="468" type="curve" smooth="yes"/>
      <point x="688.0" y="505.741935483871"/>
      <point x="669.6909090909091" y="528.0"/>
      <point x="635" y="528" type="curve" smooth="yes"/>
      <point x="575.41" y="528.0"/>
      <point x="514.7110428887594" y="460.0358402576989"/>
      <point x="433" y="341" type="curve"/>
      <point x="424" y="366" type="line"/>
      <point x="498.3295791080423" y="482.516637520715"/>
      <point x="562.7555555555556" y="576.0"/>
      <point x="647" y="576" type="curve" smooth="yes"/>
      <point x="703.25" y="576.0"/>
      <point x="737.0" y="538.0"/>
      <point x="737" y="481" type="curve" smooth="yes"/>
      <point x="737.0" y="452.0"/>
      <point x="729.2955553354586" y="406.0454485668397"/>
      <point x="721" y="362" type="curve" smooth="yes"/>
    </contour>
    <contour>
      <point x="332" y="0" type="line"/>
      <point x="400" y="378" type="line" smooth="yes"/>
      <point x="407.7359680102694" y="421.0028809982622"/>
      <point x="412.0" y="447.54545454545456"/>
      <point x="412" y="468" type="curve" smooth="yes"/>
      <point x="412.0" y="505.741935483871"/>
      <point x="393.6909090909091" y="528.0"/>
      <point x="359" y="528" type="curve" smooth="yes"/>
      <point x="298.4" y="528.0"/>
      <point x="238.71104288875944" y="460.03584025769896"/>
      <point x="157" y="341" type="curve"/>
      <point x="148" y="366" type="line"/>
      <point x="222.3295791080423" y="482.516637520715"/>
      <point x="286.7555555555556" y="576.0"/>
      <point x="371" y="576" type="curve" smooth="yes"/>
      <point x="427.25" y="576.0"/>
      <point x="461.0" y="538.0"/>
      <point x="461" y="481" type="curve" smooth="yes"/>
      <point x="461.0" y="452.0"/>
      <point x="452.53522312389646" y="407.187578790531"/>
      <point x="446" y="371" type="curve" smooth="yes"/>
      <point x="379" y="0" type="line"/>
    </contour>
  </outline>
</glyph>
<glyph name="n" format="2">
  <advance width="548"/>
  <unicode hex="006E"/>
  <anchor x="267" y="565" name="top"/>
  <anchor x="275" y="0" name="bottom"/>
  <outline>
    <contour>
      <point x="56" y="0.0" type="line"/>
      <point x="140" y="476.0" type="line" smooth="yes"/>
      <point x="146.27830154185594" y="511.57704207051694"/>
      <point x="123" y="522"/>
      <point x="74" y="530.0" type="curve" smooth="yes"/>
      <point x="61" y="532.0" type="line"/>
      <point x="68" y="565.0" type="line"/>
      <point x="179" y="565.0" type="line"/>
      <point x="169" y="391.0" type="line"/>
      <point x="171" y="383.0" type="line"/>
      <point x="103" y="0.0" type="line"/>
    </contour>
    <contour>
      <point x="421" y="139.0" type="line" smooth="yes"/>
      <point x="413" y="94"/>
      <point x="412.0" y="83"/>
      <point x="412" y="70.0" type="curve" smooth="yes"/>
      <point x="412.0" y="48"/>
      <point x="422.0" y="42.0"/>
      <point x="441" y="42.0" type="curve" smooth="yes"/>
      <point x="460" y="42"/>
      <point x="481" y="42.0"/>
      <point x="500" y="42.0" type="curve"/>
      <point x="496" y="0.0" type="line"/>
      <point x="472" y="0.0"/>
      <point x="449.0" y="0.0"/>
      <point x="424" y="0.0" type="curve" smooth="yes"/>
      <point x="388" y="0.0"/>
      <point x="363.0" y="18.0"/>
      <point x="363" y="58.0" type="curve" smooth="yes"/>
      <point x="363.0" y="83"/>
      <point x="370" y="118"/>
      <point x="379" y="168.0" type="curve" smooth="yes"/>
      <point x="416" y="366.0" type="line" smooth="yes"/>
      <point x="424.00527056067205" y="408.8390154327855"/>
      <point x="430.0" y="447.6"/>
      <point x="430" y="468.0" type="curve" smooth="yes"/>
      <point x="430.0" y="505.741935483871"/>
      <point x="409.6885245901639" y="528.0"/>
      <point x="371" y="528.0" type="curve" smooth="yes"/>
      <point x="307.4056603773585" y="528.0"/>
      <point x="240.36817983171744" y="461.98552926798016"/>
      <point x="157" y="341.0" type="curve"/>
      <point x="148" y="366.0" type="line"/>
      <point x="223.50159865903314" y="484.7891818902121"/>
      <point x="293.61965811965814" y="576.0"/>
      <point x="383" y="576.0" type="curve" smooth="yes"/>
      <point x="443.37113402061857" y="576.0"/>
      <point x="479.0" y="538.0"/>
      <point x="479" y="481.0" type="curve" smooth="yes"/>
      <point x="479.0" y="452.0"/>
      <point x="471.4773296947804" y="407.0105838556197"/>
      <point x="463" y="362.0" type="curve" smooth="yes"/>
    </contour>
  </outline>
</glyph>
<glyph name="o" format="2">
  <advance width="504"/>
  <unicode hex="006F"/>
  <anchor x="248" y="565" name="top"/>
  <anchor x="362" y="0" name="right"/>
  <anchor x="258" y="0" name="bottom"/>
  <outline>
    <contour>
      <point x="225" y="-12" type="curve" smooth="yes"/>
      <point x="399.0" y="-12.0"/>
      <point x="467" y="196"/>
      <point x="467" y="351" type="curve" smooth="yes"/>
      <point x="467.0" y="489"/>
      <point x="402.0" y="576.0"/>
      <point x="282" y="576" type="curve" smooth="yes"/>
      <point x="109.0" y="576.0"/>
      <point x="41" y="368"/>
      <point x="41" y="212" type="curve" smooth="yes"/>
      <point x="41.0" y="75"/>
      <point x="106.0" y="-12.0"/>
    </contour>
    <contour>
      <point x="228" y="32" type="curve" smooth="yes"/>
      <point x="139.0" y="32.0"/>
      <point x="93.0" y="89"/>
      <point x="93" y="216" type="curve" smooth="yes"/>
      <point x="93" y="363"/>
      <point x="145.0" y="532.0"/>
      <point x="279" y="532" type="curve" smooth="yes"/>
      <point x="369.0" y="532.0"/>
      <point x="415.0" y="474"/>
      <point x="415" y="346" type="curve" smooth="yes"/>
      <point x="415" y="200"/>
      <point x="363.0" y="32.0"/>
    </contour>
  </outline>
</glyph>
<glyph name="s" format="2">
  <advance width="436"/>
  <unicode hex="0073"/>
  <anchor x="221" y="565" name="top"/>
  <anchor x="225" y="0" name="bottom"/>
  <outline>
    <contour>
      <point x="203" y="-12" type="curve" smooth="yes"/>
      <point x="304.0" y="-12.0"/>
      <point x="378.0" y="43.32121212121211"/>
      <point x="378" y="151" type="curve" smooth="yes"/>
      <point x="378.0" y="239.10828025477707"/>
      <point x="306.80313910004816" y="273.12139755497026"/>
      <point x="247" y="310" type="curve" smooth="yes"/>
      <point x="179.69042449008248" y="351.1894417299495"/>
      <point x="137.0" y="373.0"/>
      <point x="137" y="436" type="curve" smooth="yes"/>
      <point x="137.0" y="495.2083333333333"/>
      <point x="173.3728813559322" y="534.0"/>
      <point x="253" y="534" type="curve" smooth="yes"/>
      <point x="310.9579831932773" y="534.0"/>
      <point x="347.76315759598856" y="515.218623757549"/>
      <point x="374" y="491" type="curve"/>
      <point x="366.8550060645371" y="509.3728415483332"/>
      <point x="360.0452873703462" y="528.9794148316608"/>
      <point x="349" y="534" type="curve"/>
      <point x="330" y="426" type="line"/>
      <point x="385" y="426" type="line"/>
      <point x="403" y="530" type="line"/>
      <point x="376.0" y="554"/>
      <point x="319.0" y="576.0"/>
      <point x="262" y="576" type="curve" smooth="yes"/>
      <point x="151" y="576"/>
      <point x="91.0" y="519.0"/>
      <point x="91" y="431" type="curve" smooth="yes"/>
      <point x="91.0" y="337.58940397350995"/>
      <point x="151.55144433313004" y="313.28614758058944"/>
      <point x="210" y="276" type="curve" smooth="yes"/>
      <point x="279.7146795929494" y="232.17934425586037"/>
      <point x="332.0" y="203.890625"/>
      <point x="332" y="146" type="curve" smooth="yes"/>
      <point x="332.0" y="67.35593220338984"/>
      <point x="283.0" y="30.0"/>
      <point x="203" y="30" type="curve" smooth="yes"/>
      <point x="140" y="30"/>
      <point x="83" y="60"/>
      <point x="54" y="89" type="curve"/>
      <point x="53" y="84"/>
      <point x="52.0" y="75"/>
      <point x="52" y="66" type="curve" smooth="yes"/>
      <point x="52.0" y="50.0"/>
      <point x="56" y="31"/>
      <point x="73" y="25" type="curve"/>
      <point x="96" y="160" type="line"/>
      <point x="42" y="160" type="line"/>
      <point x="24" y="54" type="line"/>
      <point x="58" y="20"/>
      <point x="129" y="-12.0"/>
    </contour>
  </outline>
</glyph>
<glyph name="t" format="2">
  <advance width="362"/>
  <unicode hex="0074"/>
  <anchor x="138" y="675" name="top"/>
  <anchor x="299" y="681" name="right"/>
  <anchor x="242" y="0" name="bottom"/>
  <outline>
    <contour>
      <point x="142" y="0.0" type="curve" smooth="yes"/>
      <point x="188" y="0"/>
      <point x="245.95" y="0.0"/>
      <point x="277" y="0.0" type="curve"/>
      <point x="281" y="42.0" type="line"/>
      <point x="268.51181102362204" y="42.0"/>
      <point x="215.67716535433073" y="42.0"/>
      <point x="159" y="42.0" type="curve" smooth="yes"/>
      <point x="140" y="42.0"/>
      <point x="130" y="48"/>
      <point x="130" y="70.0" type="curve" smooth="yes"/>
      <point x="130" y="83"/>
      <point x="132.0046607599626" y="99.58546297115885"/>
      <point x="141" y="151.0" type="curve" smooth="yes"/>
      <point x="243" y="734.0" type="line"/>
      <point x="202" y="734.0" type="line"/>
      <point x="185" y="641.0" type="line" smooth="yes"/>
      <point x="172" y="569"/>
      <point x="140" y="560"/>
      <point x="80" y="560.0" type="curve" smooth="yes"/>
      <point x="65" y="560.0" type="line"/>
      <point x="59" y="523.0" type="line"/>
      <point x="352" y="523.0" type="line"/>
      <point x="359" y="565.0" type="line"/>
      <point x="198" y="565.0" type="line"/>
      <point x="165" y="552.0" type="line"/>
      <point x="96" y="157.0" type="line" smooth="yes"/>
      <point x="86.87451168792676" y="104.75988574972563"/>
      <point x="82.0" y="83.0"/>
      <point x="82" y="58.0" type="curve" smooth="yes"/>
      <point x="82.0" y="17.0"/>
      <point x="105" y="0.0"/>
    </contour>
  </outline>
</glyph>
<glyph name="u" format="2">
  <advance width="540"/>
  <unicode hex="0075"/>
  <anchor x="257" y="565" name="top"/>
  <anchor x="423" y="0" name="right"/>
  <anchor x="254" y="0" name="bottom"/>
  <outline>
    <contour>
      <point x="138" y="198" type="curve" smooth="yes"/>
      <point x="203" y="565" type="line"/>
      <point x="77" y="565" type="line"/>
      <point x="70" y="532" type="line"/>
      <point x="83" y="530" type="line" smooth="yes"/>
      <point x="126" y="523"/>
      <point x="146" y="512"/>
      <point x="140" y="476" type="curve" smooth="yes"/>
      <point x="92" y="203" type="line" smooth="yes"/>
      <point x="84" y="158"/>
      <point x="76" y="113"/>
      <point x="76" y="84" type="curve" smooth="yes"/>
      <point x="76" y="27"/>
      <point x="110" y="-11"/>
      <point x="166" y="-11" type="curve" smooth="yes"/>
      <point x="253" y="-11"/>
      <point x="321" y="80"/>
      <point x="395" y="199" type="curve"/>
      <point x="386" y="224" type="line"/>
      <point x="303" y="105"/>
      <point x="241" y="37"/>
      <point x="180" y="37" type="curve" smooth="yes"/>
      <point x="145" y="37"/>
      <point x="125" y="59"/>
      <point x="125" y="99" type="curve" smooth="yes"/>
      <point x="125" y="119"/>
      <point x="131" y="156"/>
    </contour>
    <contour>
      <point x="420" y="0" type="curve" smooth="yes"/>
      <point x="445" y="0"/>
      <point x="470.6666666666667" y="0.0"/>
      <point x="496" y="0" type="curve"/>
      <point x="500" y="42" type="line"/>
      <point x="477" y="42"/>
      <point x="454" y="42"/>
      <point x="431" y="42" type="curve" smooth="yes"/>
      <point x="412" y="42"/>
      <point x="402" y="48"/>
      <point x="402" y="70" type="curve" smooth="yes"/>
      <point x="402" y="84"/>
      <point x="411" y="134"/>
      <point x="431" y="249" type="curve" smooth="yes"/>
      <point x="486" y="565" type="line"/>
      <point x="440" y="565" type="line"/>
      <point x="373" y="188" type="line"/>
      <point x="373" y="178" type="line"/>
      <point x="362" y="97"/>
      <point x="360" y="70"/>
      <point x="360" y="52" type="curve" smooth="yes"/>
      <point x="360.0" y="18.0"/>
      <point x="385" y="0.0"/>
    </contour>
  </outline>
</glyph>
<glyph name="v" format="2">
  <advance width="490"/>
  <unicode hex="0076"/>
  <outline>
    <contour>
      <point x="157" y="565.0" type="line"/>
      <point x="214" y="-5.0" type="line"/>
      <point x="201" y="9.0" type="line"/>
      <point x="273.1776272114953" y="194.4564032517587"/>
      <point x="347.8223727885047" y="379.54359674824127"/>
      <point x="420" y="565.0" type="curve"/>
      <point x="471" y="565.0" type="line"/>
      <point x="472" y="558.0" type="line"/>
      <point x="391" y="368.0"/>
      <point x="309" y="176.0"/>
      <point x="228" y="-15.0" type="curve"/>
      <point x="170" y="-15.0" type="line"/>
      <point x="121" y="467.0" type="line" smooth="yes"/>
      <point x="116" y="512"/>
      <point x="96" y="523"/>
      <point x="53" y="530.0" type="curve" smooth="yes"/>
      <point x="40" y="532.0" type="line"/>
      <point x="47" y="565.0" type="line"/>
    </contour>
  </outline>
</glyph>
<glyph name="E.alt" format="2">
  <advance width="552"/>
  <outline>
    <contour>
      <point x="495" y="220" type="line"/>
      <point x="454" y="220" type="line"/>
      <point x="419" y="86" type="line" smooth="yes"/>
      <point x="409" y="49"/>
      <point x="374" y="42"/>
      <point x="287" y="42" type="curve" smooth="yes"/>
      <point x="126" y="42" type="line"/>
      <point x="236" y="668" type="line"/>
      <point x="370" y="668" type="line" smooth="yes"/>
      <point x="460" y="668"/>
      <point x="492" y="660"/>
      <point x="488" y="624" type="curve" smooth="yes"/>
      <point x="475" y="515" type="line"/>
      <point x="515" y="515" type="line"/>
      <point x="550" y="710" type="line"/>
      <point x="119" y="710" type="line"/>
      <point x="109" y="664" type="line"/>
      <point x="118" y="664" type="line" smooth="yes"/>
      <point x="167" y="664"/>
      <point x="186" y="657"/>
      <point x="181" y="628" type="curve" smooth="yes"/>
      <point x="85" y="82" type="line" smooth="yes"/>
      <point x="80" y="53"/>
      <point x="49" y="46"/>
      <point x="9" y="46" type="curve" smooth="yes"/>
      <point x="0" y="46" type="line"/>
      <point x="-9" y="0" type="line"/>
      <point x="456" y="0" type="line"/>
    </contour>
    <contour>
      <point x="170" y="382" type="line"/>
      <point x="162" y="343" type="line"/>
      <point x="312" y="343" type="line" smooth="yes"/>
      <point x="337" y="343"/>
      <point x="341" y="318"/>
      <point x="336" y="284" type="curve" smooth="yes"/>
      <point x="333" y="263" type="line"/>
      <point x="372" y="263" type="line"/>
      <point x="407" y="463" type="line"/>
      <point x="368" y="463" type="line"/>
      <point x="364" y="444" type="line" smooth="yes"/>
      <point x="356" y="409"/>
      <point x="346" y="382"/>
      <point x="323" y="382" type="curve" smooth="yes"/>
    </contour>
  </outline>
</glyph>
<glyph name="F.alt" format="2">
  <advance width="532"/>
  <outline>
    <contour>
      <point x="236" y="668" type="line"/>
      <point x="373" y="668" type="line" smooth="yes"/>
      <point x="462" y="668"/>
      <point x="495" y="659"/>
      <point x="491" y="623" type="curve" smooth="yes"/>
      <point x="480" y="518" type="line"/>
      <point x="519" y="518" type="line"/>
      <point x="553" y="710" type="line"/>
      <point x="119" y="710" type="line"/>
      <point x="109" y="664" type="line"/>
      <point x="118" y="664" type="line" smooth="yes"/>
      <point x="168" y="664"/>
      <point x="186" y="657"/>
      <point x="181" y="628" type="curve" smooth="yes"/>
      <point x="85" y="82" type="line" smooth="yes"/>
      <point x="80" y="53"/>
      <point x="60" y="46"/>
      <point x="9" y="46" type="curve" smooth="yes"/>
      <point x="0" y="46" type="line"/>
      <point x="-9" y="0" type="line"/>
      <point x="212" y="0" type="line"/>
      <point x="221" y="47" type="line"/>
      <point x="205" y="47" type="line" smooth="yes"/>
      <point x="165" y="47"/>
      <point x="128" y="50"/>
      <point x="129" y="57" type="curve" smooth="yes"/>
    </contour>
    <contour>
      <point x="179" y="377" type="line"/>
      <point x="171" y="338" type="line"/>
      <point x="321" y="338" type="line" smooth="yes"/>
      <point x="346" y="338"/>
      <point x="350" y="313"/>
      <point x="345" y="279" type="curve" smooth="yes"/>
      <point x="342" y="258" type="line"/>
      <point x="381" y="258" type="line"/>
      <point x="416" y="458" type="line"/>
      <point x="377" y="458" type="line"/>
      <point x="373" y="439" type="line" smooth="yes"/>
      <point x="366" y="404"/>
      <point x="355" y="377"/>
      <point x="332" y="377" type="curve" smooth="yes"/>
    </contour>
  </outline>
</glyph>
<glyph name="f.alt" format="2">
  <advance width="333"/>
  <outline>
    <contour>
      <point x="55" y="565.0" type="line"/>
      <point x="50" y="523.0" type="line"/>
      <point x="333" y="523.0" type="line"/>
      <point x="339" y="565.0" type="line"/>
    </contour>
    <contour>
      <point x="305" y="790.0" type="curve" smooth="yes"/>
      <point x="217" y="790"/>
      <point x="177" y="740"/>
      <point x="167" y="662.0" type="curve" smooth="yes"/>
      <point x="54" y="-223.0" type="line"/>
      <point x="94" y="-223.0" type="line"/>
      <point x="215" y="656.0" type="line" smooth="yes"/>
      <point x="224" y="720"/>
      <point x="246" y="754"/>
      <point x="305" y="754.0" type="curve" smooth="yes"/>
      <point x="338" y="754.0"/>
      <point x="373" y="743.0"/>
      <point x="394" y="731.0" type="curve"/>
      <point x="389" y="749.0"/>
      <point x="382" y="760.0"/>
      <point x="366" y="771.0" type="curve"/>
      <point x="353" y="663.0" type="line"/>
      <point x="402" y="663.0" type="line"/>
      <point x="415" y="765.0" type="line"/>
      <point x="397" y="775.0"/>
      <point x="350" y="790.0"/>
    </contour>
  </outline>
</glyph>
<glyph name="f.short" format="2">
  <advance width="311"/>
  <outline>
    <contour>
      <point x="55" y="565.0" type="line"/>
      <point x="50" y="523.0" type="line"/>
      <point x="327" y="523.0" type="line"/>
      <point x="333" y="565.0" type="line"/>
    </contour>
    <contour>
      <point x="94" y="-223.0" type="line"/>
      <point x="215" y="656.0" type="line" smooth="yes"/>
      <point x="224.66788744493365" y="726.2320087941875"/>
      <point x="248" y="744.0"/>
      <point x="293" y="744.0" type="curve" smooth="yes"/>
      <point x="314" y="744.0"/>
      <point x="337.72556610898096" y="739.0866633340061"/>
      <point x="357" y="733.0" type="curve"/>
      <point x="365" y="779.0" type="line"/>
      <point x="348.85122549078517" y="784.0464920341296"/>
      <point x="322" y="790.0"/>
      <point x="296" y="790.0" type="curve" smooth="yes"/>
      <point x="219" y="790"/>
      <point x="179" y="756"/>
      <point x="167" y="662.0" type="curve" smooth="yes"/>
      <point x="54" y="-223.0" type="line"/>
    </contour>
  </outline>
</glyph>
<glyph name="g.alt" format="2">
  <advance width="553"/>
  <outline>
    <contour>
      <point x="554" y="552" type="curve"/>
      <point x="567" y="609" type="line"/>
      <point x="559" y="610"/>
      <point x="552" y="610"/>
      <point x="544" y="610" type="curve" smooth="yes"/>
      <point x="469.49342105263156" y="610.0"/>
      <point x="426.96360389861724" y="574.9175735351037"/>
      <point x="393" y="498" type="curve"/>
      <point x="415" y="496" type="line"/>
      <point x="446.66377620040276" y="527.6637762004028"/>
      <point x="478" y="552.0"/>
    </contour>
    <contour>
      <point x="277" y="220" type="curve" smooth="yes"/>
      <point x="205.6" y="220.0"/>
      <point x="158.0" y="276.0"/>
      <point x="158" y="374" type="curve" smooth="yes"/>
      <point x="158.0" y="461.54037267080747"/>
      <point x="192.0" y="536.0"/>
      <point x="289" y="536" type="curve" smooth="yes"/>
      <point x="358.0" y="536.0"/>
      <point x="407.0" y="483.64383561643837"/>
      <point x="407" y="389" type="curve" smooth="yes"/>
      <point x="407.0" y="297.0"/>
      <point x="376.469696969697" y="220.0"/>
    </contour>
    <contour>
      <point x="278" y="180" type="curve" smooth="yes"/>
      <point x="396" y="180"/>
      <point x="456" y="277"/>
      <point x="456" y="390" type="curve" smooth="yes"/>
      <point x="456" y="497"/>
      <point x="391" y="576"/>
      <point x="288" y="576" type="curve" smooth="yes"/>
      <point x="172" y="576"/>
      <point x="109" y="480"/>
      <point x="109" y="372" type="curve" smooth="yes"/>
      <point x="109" y="264"/>
      <point x="173" y="180"/>
    </contour>
    <contour>
      <point x="131" y="-252" type="curve" smooth="yes"/>
      <point x="257" y="-252" type="line" smooth="yes"/>
      <point x="379" y="-252"/>
      <point x="468.0" y="-195.0"/>
      <point x="468" y="-83" type="curve" smooth="yes"/>
      <point x="468.0" y="-2.0"/>
      <point x="415" y="51"/>
      <point x="316" y="51" type="curve" smooth="yes"/>
      <point x="167" y="51" type="line" smooth="yes"/>
      <point x="114.85714285714286" y="51"/>
      <point x="94" y="74"/>
      <point x="94" y="112" type="curve" smooth="yes"/>
      <point x="94" y="166"/>
      <point x="132" y="198"/>
      <point x="193" y="228" type="curve"/>
      <point x="178" y="249" type="line"/>
      <point x="104" y="216"/>
      <point x="46" y="177"/>
      <point x="46" y="96" type="curve" smooth="yes"/>
      <point x="46" y="49"/>
      <point x="76" y="14"/>
      <point x="121" y="4" type="curve"/>
      <point x="119" y="0" type="line"/>
      <point x="312" y="0" type="line" smooth="yes"/>
      <point x="394.0561797752809" y="0"/>
      <point x="421.0" y="-37.57303370786517"/>
      <point x="421" y="-88" type="curve" smooth="yes"/>
      <point x="421.0" y="-161.40800000000002"/>
      <point x="366" y="-212"/>
      <point x="263" y="-212" type="curve" smooth="yes"/>
      <point x="136" y="-212" type="line" smooth="yes"/>
      <point x="57.82828282828284" y="-212"/>
      <point x="27" y="-181"/>
      <point x="27" y="-131" type="curve" smooth="yes"/>
      <point x="27.0" y="-69.0"/>
      <point x="63.77285991106393" y="-24.23870023615727"/>
      <point x="166" y="15" type="curve"/>
      <point x="149" y="31" type="line"/>
      <point x="28.837212913038186" y="-11.108327098849863"/>
      <point x="-21.0" y="-52.0"/>
      <point x="-21" y="-136" type="curve" smooth="yes"/>
      <point x="-21" y="-197"/>
      <point x="18.605633802816897" y="-252"/>
    </contour>
  </outline>
</glyph>
